# Blender 4.0.2
# www.blender.org
o RoadWheelL1.001
v -0.320000 0.000000 -0.320000
v 0.320000 0.000000 -0.320000
v -0.320000 -0.122459 -0.295641
v 0.320000 -0.122459 -0.295641
v -0.320000 -0.226274 -0.226274
v 0.320000 -0.226274 -0.226274
v -0.320000 -0.295641 -0.122459
v 0.320000 -0.295641 -0.122459
v -0.320000 -0.320000 0.000000
v 0.320000 -0.320000 0.000000
v -0.320000 -0.295641 0.122459
v 0.320000 -0.295641 0.122459
v -0.320000 -0.226274 0.226274
v 0.320000 -0.226274 0.226274
v -0.320000 -0.122459 0.295641
v 0.320000 -0.122459 0.295641
v -0.320000 0.000000 0.320000
v 0.320000 -0.000000 0.320000
v -0.320000 0.122459 0.295641
v 0.320000 0.122459 0.295641
v -0.320000 0.226274 0.226274
v 0.320000 0.226274 0.226274
v -0.320000 0.295642 0.122459
v 0.320000 0.295641 0.122459
v -0.320000 0.320000 -0.000000
v 0.320000 0.320000 -0.000000
v -0.320000 0.295642 -0.122459
v 0.320000 0.295641 -0.122459
v -0.320000 0.226274 -0.226274
v 0.320000 0.226274 -0.226274
v -0.320000 0.122459 -0.295642
v 0.320000 0.122459 -0.295642
v -0.053333 0.000000 -0.320000
v 0.053333 0.000000 -0.320000
v 0.053333 -0.122459 -0.295641
v -0.053333 -0.122459 -0.295641
v 0.053333 -0.226274 -0.226274
v -0.053333 -0.226274 -0.226274
v 0.053333 -0.295641 -0.122459
v -0.053333 -0.295641 -0.122459
v 0.053333 -0.320000 0.000000
v -0.053333 -0.320000 0.000000
v 0.053333 -0.295641 0.122459
v -0.053333 -0.295641 0.122459
v 0.053333 -0.226274 0.226274
v -0.053333 -0.226274 0.226274
v 0.053333 -0.122459 0.295641
v -0.053333 -0.122459 0.295641
v 0.053333 -0.000000 0.320000
v -0.053333 0.000000 0.320000
v 0.053333 0.122459 0.295641
v -0.053333 0.122459 0.295641
v 0.053333 0.226274 0.226274
v -0.053333 0.226274 0.226274
v 0.053333 0.295642 0.122459
v -0.053333 0.295642 0.122459
v 0.053333 0.320000 -0.000000
v -0.053333 0.320000 -0.000000
v 0.053333 0.295642 -0.122459
v -0.053333 0.295642 -0.122459
v 0.053333 0.226274 -0.226274
v -0.053333 0.226274 -0.226274
v 0.053333 0.122459 -0.295642
v -0.053333 0.122459 -0.295642
v -0.032000 0.000000 -0.192000
v 0.032000 0.000000 -0.192000
v 0.032000 -0.073475 -0.177385
v -0.032000 -0.073475 -0.177385
v 0.032000 -0.135764 -0.135764
v -0.032000 -0.135764 -0.135764
v 0.032000 -0.177385 -0.073475
v -0.032000 -0.177385 -0.073475
v 0.032000 -0.192000 0.000000
v -0.032000 -0.192000 0.000000
v 0.032000 -0.177385 0.073475
v -0.032000 -0.177385 0.073475
v 0.032000 -0.135764 0.135765
v -0.032000 -0.135764 0.135765
v 0.032000 -0.073475 0.177385
v -0.032000 -0.073475 0.177385
v 0.032000 0.000000 0.192000
v -0.032000 0.000000 0.192000
v 0.032000 0.073475 0.177385
v -0.032000 0.073475 0.177385
v 0.032000 0.135765 0.135765
v -0.032000 0.135765 0.135765
v 0.032000 0.177385 0.073475
v -0.032000 0.177385 0.073475
v 0.032000 0.192000 0.000000
v -0.032000 0.192000 0.000000
v 0.032000 0.177385 -0.073475
v -0.032000 0.177385 -0.073475
v 0.032000 0.135765 -0.135765
v -0.032000 0.135765 -0.135765
v 0.032000 0.073475 -0.177385
v -0.032000 0.073475 -0.177385
vn -0.0000 -0.1951 -0.9808
vn -0.0000 -0.5556 -0.8315
vn -0.0000 -0.8315 -0.5556
vn -0.0000 -0.9808 -0.1951
vn -0.0000 -0.9808 0.1951
vn -0.0000 -0.8315 0.5556
vn -0.0000 -0.5556 0.8315
vn -0.0000 -0.1951 0.9808
vn -0.0000 0.1951 0.9808
vn -0.0000 0.5556 0.8315
vn -0.0000 0.8315 0.5556
vn -0.0000 0.9808 0.1951
vn -0.0000 0.9808 -0.1951
vn -0.0000 0.8315 -0.5556
vn 1.0000 -0.0000 -0.0000
vn -0.0000 0.5556 -0.8315
vn -0.0000 0.1951 -0.9808
vn -1.0000 -0.0000 -0.0000
vn 0.9859 -0.1393 -0.0931
vn 0.9859 0.0931 0.1393
vn -0.9859 -0.1643 -0.0327
vn -0.9859 0.1393 0.0931
vn 0.9859 -0.1643 -0.0327
vn 0.9859 0.1393 0.0931
vn -0.9859 -0.1643 0.0327
vn -0.9859 0.1643 0.0327
vn 0.9859 -0.1643 0.0327
vn 0.9859 0.1643 0.0327
vn -0.9859 -0.1393 0.0931
vn -0.9859 0.1643 -0.0327
vn 0.9859 -0.1393 0.0931
vn 0.9859 0.1643 -0.0327
vn -0.9859 -0.0931 0.1393
vn -0.9859 0.1393 -0.0931
vn -0.9859 0.0931 0.1393
vn 0.9859 0.0327 -0.1643
vn -0.9859 -0.1393 -0.0931
vn 0.9859 0.0327 0.1643
vn -0.9859 0.0327 -0.1643
vn 0.9859 -0.0931 -0.1393
vn -0.9859 0.0327 0.1643
vn 0.9859 0.0931 -0.1393
vn -0.9859 -0.0931 -0.1393
vn 0.9859 -0.0327 0.1643
vn -0.9859 0.0931 -0.1393
vn 0.9859 -0.0327 -0.1643
vn -0.9859 -0.0327 0.1643
vn 0.9859 0.1393 -0.0931
vn -0.9859 -0.0327 -0.1643
vn 0.9859 -0.0931 0.1393
vt 1.000000 1.000000
vt 0.937500 0.833333
vt 1.000000 0.833333
vt 0.937500 1.000000
vt 0.875000 0.833333
vt 0.875000 1.000000
vt 0.812500 0.833333
vt 0.812500 1.000000
vt 0.750000 0.833333
vt 0.687500 1.000000
vt 0.687500 0.833333
vt 0.625000 0.833333
vt 0.625000 1.000000
vt 0.562500 0.833333
vt 0.562500 1.000000
vt 0.500000 0.833333
vt 0.437500 1.000000
vt 0.437500 0.833333
vt 0.375000 1.000000
vt 0.375000 0.833333
vt 0.312500 0.833333
vt 0.250000 1.000000
vt 0.250000 0.833333
vt 0.187500 0.833333
vt 0.187500 1.000000
vt 0.125000 0.833333
vt 0.080294 0.080294
vt 0.419706 0.080294
vt 0.419706 0.419706
vt 0.125000 1.000000
vt 0.062500 0.833333
vt 0.062500 1.000000
vt 0.000000 0.833333
vt 0.841844 0.028269
vt 0.528269 0.158156
vt 0.658156 0.471731
vt 0.062500 0.666667
vt 0.000000 0.500000
vt 0.062500 0.500000
vt 0.812500 0.666667
vt 0.875000 0.666667
vt 0.125000 0.666667
vt 0.125000 0.500000
vt 0.437500 0.666667
vt 0.375000 0.666667
vt 0.187500 0.500000
vt 0.250000 0.666667
vt 0.250000 0.500000
vt 0.312500 0.666667
vt 0.312500 0.500000
vt 0.750000 0.666667
vt 0.375000 0.500000
vt 0.437500 0.500000
vt 0.500000 0.666667
vt 0.500000 0.500000
vt 0.562500 0.666667
vt 0.562500 0.500000
vt 0.687500 0.666667
vt 0.625000 0.666667
vt 0.625000 0.500000
vt 0.687500 0.500000
vt 0.750000 0.500000
vt 0.812500 0.500000
vt 0.875000 0.500000
vt 0.187500 0.666667
vt 0.937500 0.666667
vt 0.937500 0.500000
vt 1.000000 0.666667
vt 1.000000 0.500000
vt 0.000000 0.666667
vt 0.750000 1.000000
vt 0.500000 1.000000
vt 0.312500 1.000000
vt 0.341844 0.471731
vt 0.250000 0.490000
vt 0.158156 0.471731
vt 0.080294 0.419706
vt 0.028269 0.341844
vt 0.010000 0.250000
vt 0.028269 0.158156
vt 0.158156 0.028269
vt 0.250000 0.010000
vt 0.341844 0.028269
vt 0.471731 0.158156
vt 0.490000 0.250000
vt 0.471731 0.341844
vt 0.000000 1.000000
vt 0.750000 0.490000
vt 0.841844 0.471731
vt 0.919706 0.419706
vt 0.971731 0.341844
vt 0.990000 0.250000
vt 0.971731 0.158156
vt 0.919706 0.080294
vt 0.750000 0.010000
vt 0.658156 0.028269
vt 0.580294 0.080294
vt 0.510000 0.250000
vt 0.528269 0.341844
vt 0.580294 0.419706
s 0
f 2/1/1 35/2/1 34/3/1
f 4/4/2 37/5/2 35/2/2
f 6/6/3 39/7/3 37/5/3
f 8/8/4 41/9/4 39/7/4
f 41/9/5 12/10/5 43/11/5
f 12/10/6 45/12/6 43/11/6
f 14/13/7 47/14/7 45/12/7
f 16/15/8 49/16/8 47/14/8
f 49/16/9 20/17/9 51/18/9
f 51/18/10 22/19/10 53/20/10
f 22/19/11 55/21/11 53/20/11
f 55/21/12 26/22/12 57/23/12
f 26/22/13 59/24/13 57/23/13
f 28/25/14 61/26/14 59/24/14
f 22/27/15 14/28/15 6/29/15
f 30/30/16 63/31/16 61/26/16
f 32/32/17 34/33/17 63/31/17
f 15/34/18 23/35/18 31/36/18
f 64/37/17 1/38/17 31/39/17
f 40/40/19 70/41/19 72/40/19
f 62/42/16 31/39/16 29/43/16
f 52/44/20 86/45/20 54/45/20
f 27/46/14 62/42/14 29/43/14
f 41/9/21 71/7/21 39/7/21
f 58/47/13 27/46/13 25/48/13
f 53/20/22 87/21/22 85/20/22
f 56/49/12 25/48/12 23/50/12
f 42/51/23 72/40/23 74/51/23
f 54/45/11 23/50/11 21/52/11
f 54/45/24 88/49/24 56/49/24
f 52/44/10 21/52/10 19/53/10
f 43/11/25 73/9/25 41/9/25
f 50/54/9 19/53/9 17/55/9
f 55/21/26 89/23/26 87/21/26
f 48/56/8 17/55/8 15/57/8
f 44/58/27 74/51/27 76/58/27
f 46/59/7 15/57/7 13/60/7
f 56/49/28 90/47/28 58/47/28
f 44/58/6 13/60/6 11/61/6
f 43/11/29 77/12/29 75/11/29
f 42/51/5 11/61/5 9/62/5
f 57/23/30 91/24/30 89/23/30
f 40/40/4 9/62/4 7/63/4
f 44/58/31 78/59/31 46/59/31
f 38/41/3 7/63/3 5/64/3
f 58/47/32 92/65/32 60/65/32
f 36/66/2 5/64/2 3/67/2
f 47/14/33 77/12/33 45/12/33
f 33/68/1 3/67/1 1/69/1
f 59/24/34 93/26/34 91/24/34
f 95/31/17 65/70/17 96/37/17
f 93/26/16 96/37/16 94/42/16
f 92/65/14 93/26/14 94/42/14
f 89/23/13 92/65/13 90/47/13
f 87/21/12 90/47/12 88/49/12
f 85/20/11 88/49/11 86/45/11
f 83/18/10 86/45/10 84/44/10
f 82/54/9 83/18/9 84/44/9
f 80/56/8 81/16/8 82/54/8
f 77/12/7 80/56/7 78/59/7
f 75/11/6 78/59/6 76/58/6
f 73/9/5 76/58/5 74/51/5
f 71/7/4 74/51/4 72/40/4
f 69/5/3 72/40/3 70/41/3
f 67/2/2 70/41/2 68/66/2
f 66/3/1 68/66/1 65/68/1
f 51/18/35 85/20/35 83/18/35
f 64/37/36 65/70/36 33/70/36
f 39/7/37 69/5/37 37/5/37
f 50/54/38 84/44/38 52/44/38
f 34/33/39 95/31/39 63/31/39
f 36/66/40 70/41/40 38/41/40
f 51/18/41 81/16/41 49/16/41
f 62/42/42 96/37/42 64/37/42
f 37/5/43 67/2/43 35/2/43
f 48/56/44 82/54/44 50/54/44
f 63/31/45 93/26/45 61/26/45
f 36/66/46 65/68/46 68/66/46
f 49/16/47 79/14/47 47/14/47
f 60/65/48 94/42/48 62/42/48
f 35/2/49 66/3/49 34/3/49
f 48/56/50 78/59/50 80/56/50
f 2/1/1 4/4/1 35/2/1
f 4/4/2 6/6/2 37/5/2
f 6/6/3 8/8/3 39/7/3
f 8/8/4 10/71/4 41/9/4
f 41/9/5 10/71/5 12/10/5
f 12/10/6 14/13/6 45/12/6
f 14/13/7 16/15/7 47/14/7
f 16/15/8 18/72/8 49/16/8
f 49/16/9 18/72/9 20/17/9
f 51/18/10 20/17/10 22/19/10
f 22/19/11 24/73/11 55/21/11
f 55/21/12 24/73/12 26/22/12
f 26/22/13 28/25/13 59/24/13
f 28/25/14 30/30/14 61/26/14
f 6/29/15 4/74/15 2/75/15
f 2/75/15 32/76/15 30/77/15
f 30/77/15 28/78/15 26/79/15
f 26/79/15 24/80/15 22/27/15
f 22/27/15 20/81/15 18/82/15
f 18/82/15 16/83/15 14/28/15
f 14/28/15 12/84/15 10/85/15
f 10/85/15 8/86/15 6/29/15
f 6/29/15 2/75/15 30/77/15
f 30/77/15 26/79/15 22/27/15
f 22/27/15 18/82/15 14/28/15
f 14/28/15 10/85/15 6/29/15
f 6/29/15 30/77/15 22/27/15
f 30/30/16 32/32/16 63/31/16
f 32/32/17 2/87/17 34/33/17
f 31/36/18 1/88/18 3/89/18
f 3/89/18 5/90/18 7/91/18
f 7/91/18 9/92/18 11/93/18
f 11/93/18 13/94/18 15/34/18
f 15/34/18 17/95/18 19/96/18
f 19/96/18 21/97/18 23/35/18
f 23/35/18 25/98/18 27/99/18
f 27/99/18 29/100/18 31/36/18
f 31/36/18 3/89/18 7/91/18
f 7/91/18 11/93/18 15/34/18
f 15/34/18 19/96/18 23/35/18
f 23/35/18 27/99/18 31/36/18
f 31/36/18 7/91/18 15/34/18
f 64/37/17 33/70/17 1/38/17
f 40/40/19 38/41/19 70/41/19
f 62/42/16 64/37/16 31/39/16
f 52/44/20 84/44/20 86/45/20
f 27/46/14 60/65/14 62/42/14
f 41/9/21 73/9/21 71/7/21
f 58/47/13 60/65/13 27/46/13
f 53/20/22 55/21/22 87/21/22
f 56/49/12 58/47/12 25/48/12
f 42/51/23 40/40/23 72/40/23
f 54/45/11 56/49/11 23/50/11
f 54/45/24 86/45/24 88/49/24
f 52/44/10 54/45/10 21/52/10
f 43/11/25 75/11/25 73/9/25
f 50/54/9 52/44/9 19/53/9
f 55/21/26 57/23/26 89/23/26
f 48/56/8 50/54/8 17/55/8
f 44/58/27 42/51/27 74/51/27
f 46/59/7 48/56/7 15/57/7
f 56/49/28 88/49/28 90/47/28
f 44/58/6 46/59/6 13/60/6
f 43/11/29 45/12/29 77/12/29
f 42/51/5 44/58/5 11/61/5
f 57/23/30 59/24/30 91/24/30
f 40/40/4 42/51/4 9/62/4
f 44/58/31 76/58/31 78/59/31
f 38/41/3 40/40/3 7/63/3
f 58/47/32 90/47/32 92/65/32
f 36/66/2 38/41/2 5/64/2
f 47/14/33 79/14/33 77/12/33
f 33/68/1 36/66/1 3/67/1
f 59/24/34 61/26/34 93/26/34
f 95/31/17 66/33/17 65/70/17
f 93/26/16 95/31/16 96/37/16
f 92/65/14 91/24/14 93/26/14
f 89/23/13 91/24/13 92/65/13
f 87/21/12 89/23/12 90/47/12
f 85/20/11 87/21/11 88/49/11
f 83/18/10 85/20/10 86/45/10
f 82/54/9 81/16/9 83/18/9
f 80/56/8 79/14/8 81/16/8
f 77/12/7 79/14/7 80/56/7
f 75/11/6 77/12/6 78/59/6
f 73/9/5 75/11/5 76/58/5
f 71/7/4 73/9/4 74/51/4
f 69/5/3 71/7/3 72/40/3
f 67/2/2 69/5/2 70/41/2
f 66/3/1 67/2/1 68/66/1
f 51/18/35 53/20/35 85/20/35
f 64/37/36 96/37/36 65/70/36
f 39/7/37 71/7/37 69/5/37
f 50/54/38 82/54/38 84/44/38
f 34/33/39 66/33/39 95/31/39
f 36/66/40 68/66/40 70/41/40
f 51/18/41 83/18/41 81/16/41
f 62/42/42 94/42/42 96/37/42
f 37/5/43 69/5/43 67/2/43
f 48/56/44 80/56/44 82/54/44
f 63/31/45 95/31/45 93/26/45
f 36/66/46 33/68/46 65/68/46
f 49/16/47 81/16/47 79/14/47
f 60/65/48 92/65/48 94/42/48
f 35/2/49 67/2/49 66/3/49
f 48/56/50 46/59/50 78/59/50
